<mxfile host="app.diagrams.net" agent="Mozilla/5.0 (X11; Linux x86_64) AppleWebKit/537.36 (KHTML, like Gecko) Chrome/138.0.0.0 Safari/537.36" version="27.1.6">
  <diagram name="Pagina-1" id="x2mTv67IbYab4gMA-unp">
    <mxGraphModel dx="2893" dy="2225" grid="1" gridSize="10" guides="1" tooltips="1" connect="1" arrows="1" fold="1" page="1" pageScale="1" pageWidth="827" pageHeight="1169" math="0" shadow="0">
      <root>
        <mxCell id="0" />
        <mxCell id="1" parent="0" />
        <mxCell id="6aKzAuDBrb87LQXKOuH2-1" value="" style="swimlane;startSize=0;" parent="1" vertex="1">
          <mxGeometry x="-390" y="-260" width="720" height="620" as="geometry">
            <mxRectangle x="20" y="80" width="50" height="40" as="alternateBounds" />
          </mxGeometry>
        </mxCell>
        <mxCell id="6aKzAuDBrb87LQXKOuH2-2" value="" style="shape=image;imageAspect=0;aspect=fixed;verticalLabelPosition=bottom;verticalAlign=top;image=https://upload.wikimedia.org/wikipedia/commons/thumb/3/39/Kubernetes_logo_without_workmark.svg/1055px-Kubernetes_logo_without_workmark.svg.png;" parent="6aKzAuDBrb87LQXKOuH2-1" vertex="1">
          <mxGeometry x="10" y="10" width="51.49" height="50" as="geometry" />
        </mxCell>
        <mxCell id="6aKzAuDBrb87LQXKOuH2-3" value="&lt;div&gt;&lt;b&gt;AGENT&lt;/b&gt;&lt;/div&gt;" style="shape=process;whiteSpace=wrap;html=1;backgroundOutline=1;" parent="6aKzAuDBrb87LQXKOuH2-1" vertex="1">
          <mxGeometry x="110.74000000000001" y="415" width="138.51" height="100" as="geometry" />
        </mxCell>
        <mxCell id="6aKzAuDBrb87LQXKOuH2-5" value="" style="swimlane;startSize=0;" parent="6aKzAuDBrb87LQXKOuH2-1" vertex="1">
          <mxGeometry x="420" y="420" width="120" height="90" as="geometry" />
        </mxCell>
        <mxCell id="6aKzAuDBrb87LQXKOuH2-6" value="&lt;b&gt;RELAY (Proxy)&lt;/b&gt;" style="text;html=1;align=center;verticalAlign=middle;resizable=0;points=[];autosize=1;strokeColor=none;fillColor=none;" parent="6aKzAuDBrb87LQXKOuH2-5" vertex="1">
          <mxGeometry x="5" y="28" width="110" height="30" as="geometry" />
        </mxCell>
        <mxCell id="6aKzAuDBrb87LQXKOuH2-7" value="" style="shape=image;imageAspect=0;aspect=fixed;verticalLabelPosition=bottom;verticalAlign=top;image=https://go.dev/blog/go-brand/Go-Logo/PNG/Go-Logo_Blue.png;" parent="6aKzAuDBrb87LQXKOuH2-5" vertex="1">
          <mxGeometry y="58.85000000000002" width="35.22" height="31.15" as="geometry" />
        </mxCell>
        <mxCell id="6aKzAuDBrb87LQXKOuH2-8" value="" style="endArrow=classic;html=1;rounded=0;exitX=1;exitY=0.5;exitDx=0;exitDy=0;entryX=0;entryY=0.5;entryDx=0;entryDy=0;dashed=1;dashPattern=8 8;" parent="6aKzAuDBrb87LQXKOuH2-1" source="6aKzAuDBrb87LQXKOuH2-3" target="6aKzAuDBrb87LQXKOuH2-5" edge="1">
          <mxGeometry width="50" height="50" relative="1" as="geometry">
            <mxPoint x="370" y="520" as="sourcePoint" />
            <mxPoint x="420" y="470" as="targetPoint" />
          </mxGeometry>
        </mxCell>
        <mxCell id="6aKzAuDBrb87LQXKOuH2-10" value="&lt;font style=&quot;font-size: 9px;&quot;&gt;gRPC unidirectional (every 5s)&lt;/font&gt;" style="text;html=1;align=center;verticalAlign=middle;whiteSpace=wrap;rounded=0;" parent="6aKzAuDBrb87LQXKOuH2-1" vertex="1">
          <mxGeometry x="310" y="420" width="60" height="30" as="geometry" />
        </mxCell>
        <mxCell id="6aKzAuDBrb87LQXKOuH2-11" value="&lt;b&gt;CLUSTER 1,2... n&lt;/b&gt;" style="text;html=1;align=center;verticalAlign=middle;resizable=0;points=[];autosize=1;strokeColor=none;fillColor=none;" parent="6aKzAuDBrb87LQXKOuH2-1" vertex="1">
          <mxGeometry x="590" width="120" height="30" as="geometry" />
        </mxCell>
        <mxCell id="6aKzAuDBrb87LQXKOuH2-12" value="&lt;font style=&quot;font-size: 9px;&quot;&gt;gRPC&lt;/font&gt;&lt;div&gt;&lt;font style=&quot;font-size: 9px;&quot;&gt;unidirectional&lt;/font&gt;&lt;/div&gt;" style="text;html=1;align=center;verticalAlign=middle;whiteSpace=wrap;rounded=0;" parent="6aKzAuDBrb87LQXKOuH2-1" vertex="1">
          <mxGeometry x="640" y="430" width="60" height="30" as="geometry" />
        </mxCell>
        <mxCell id="6aKzAuDBrb87LQXKOuH2-13" value="" style="shape=image;imageAspect=0;aspect=fixed;verticalLabelPosition=bottom;verticalAlign=top;image=https://go.dev/blog/go-brand/Go-Logo/PNG/Go-Logo_Blue.png;" parent="6aKzAuDBrb87LQXKOuH2-1" vertex="1">
          <mxGeometry x="127.61" y="483.85" width="35.22" height="31.15" as="geometry" />
        </mxCell>
        <mxCell id="6aKzAuDBrb87LQXKOuH2-14" value="&lt;font style=&quot;font-size: 9px;&quot;&gt;HTTP&lt;/font&gt;" style="text;html=1;align=center;verticalAlign=middle;resizable=0;points=[];autosize=1;strokeColor=none;fillColor=none;rotation=40;" parent="6aKzAuDBrb87LQXKOuH2-1" vertex="1">
          <mxGeometry x="640" y="530" width="50" height="30" as="geometry" />
        </mxCell>
        <mxCell id="6aKzAuDBrb87LQXKOuH2-24" value="" style="rounded=0;whiteSpace=wrap;html=1;" parent="6aKzAuDBrb87LQXKOuH2-1" vertex="1">
          <mxGeometry x="20" y="70" width="680" height="270" as="geometry" />
        </mxCell>
        <mxCell id="6aKzAuDBrb87LQXKOuH2-25" value="CRI socket" style="rhombus;whiteSpace=wrap;html=1;" parent="6aKzAuDBrb87LQXKOuH2-1" vertex="1">
          <mxGeometry x="140.00000000000003" y="160" width="80" height="80" as="geometry" />
        </mxCell>
        <mxCell id="6aKzAuDBrb87LQXKOuH2-28" value="namespaces" style="ellipse;whiteSpace=wrap;html=1;" parent="6aKzAuDBrb87LQXKOuH2-1" vertex="1">
          <mxGeometry x="590" y="90" width="80" height="60" as="geometry" />
        </mxCell>
        <mxCell id="6aKzAuDBrb87LQXKOuH2-29" value="nodes" style="ellipse;whiteSpace=wrap;html=1;" parent="6aKzAuDBrb87LQXKOuH2-1" vertex="1">
          <mxGeometry x="460" y="90" width="90" height="60" as="geometry" />
        </mxCell>
        <mxCell id="6aKzAuDBrb87LQXKOuH2-33" value="daemonsets" style="ellipse;whiteSpace=wrap;html=1;" parent="6aKzAuDBrb87LQXKOuH2-1" vertex="1">
          <mxGeometry x="465" y="250" width="80" height="60" as="geometry" />
        </mxCell>
        <mxCell id="6aKzAuDBrb87LQXKOuH2-34" value="pod" style="ellipse;whiteSpace=wrap;html=1;" parent="6aKzAuDBrb87LQXKOuH2-1" vertex="1">
          <mxGeometry x="590" y="250" width="80" height="60" as="geometry" />
        </mxCell>
        <mxCell id="6aKzAuDBrb87LQXKOuH2-35" value="Kubelet" style="rhombus;whiteSpace=wrap;html=1;" parent="6aKzAuDBrb87LQXKOuH2-1" vertex="1">
          <mxGeometry x="249.25" y="160" width="80" height="80" as="geometry" />
        </mxCell>
        <mxCell id="6aKzAuDBrb87LQXKOuH2-36" value="CRI-O" style="rhombus;whiteSpace=wrap;html=1;" parent="6aKzAuDBrb87LQXKOuH2-1" vertex="1">
          <mxGeometry x="30.740000000000002" y="160" width="80" height="80" as="geometry" />
        </mxCell>
        <mxCell id="6aKzAuDBrb87LQXKOuH2-37" value="API Server" style="rhombus;whiteSpace=wrap;html=1;" parent="6aKzAuDBrb87LQXKOuH2-1" vertex="1">
          <mxGeometry x="360" y="160" width="80" height="80" as="geometry" />
        </mxCell>
        <mxCell id="6aKzAuDBrb87LQXKOuH2-38" value="" style="endArrow=classic;startArrow=classic;html=1;rounded=0;exitX=1;exitY=0.5;exitDx=0;exitDy=0;entryX=0;entryY=0.5;entryDx=0;entryDy=0;" parent="6aKzAuDBrb87LQXKOuH2-1" source="6aKzAuDBrb87LQXKOuH2-35" target="6aKzAuDBrb87LQXKOuH2-37" edge="1">
          <mxGeometry width="50" height="50" relative="1" as="geometry">
            <mxPoint x="780" y="470" as="sourcePoint" />
            <mxPoint x="830" y="420" as="targetPoint" />
          </mxGeometry>
        </mxCell>
        <mxCell id="6aKzAuDBrb87LQXKOuH2-40" value="" style="endArrow=classic;html=1;rounded=0;exitX=0.5;exitY=0;exitDx=0;exitDy=0;entryX=0.5;entryY=1;entryDx=0;entryDy=0;strokeColor=default;dashed=1;dashPattern=8 8;" parent="6aKzAuDBrb87LQXKOuH2-1" source="6aKzAuDBrb87LQXKOuH2-3" target="6aKzAuDBrb87LQXKOuH2-25" edge="1">
          <mxGeometry width="50" height="50" relative="1" as="geometry">
            <mxPoint x="780" y="470" as="sourcePoint" />
            <mxPoint x="830" y="420" as="targetPoint" />
          </mxGeometry>
        </mxCell>
        <mxCell id="6aKzAuDBrb87LQXKOuH2-42" value="" style="endArrow=classic;html=1;rounded=1;exitX=1;exitY=0.5;exitDx=0;exitDy=0;entryX=0.5;entryY=1;entryDx=0;entryDy=0;curved=0;" parent="6aKzAuDBrb87LQXKOuH2-1" source="6aKzAuDBrb87LQXKOuH2-37" target="6aKzAuDBrb87LQXKOuH2-29" edge="1">
          <mxGeometry width="50" height="50" relative="1" as="geometry">
            <mxPoint x="780" y="470" as="sourcePoint" />
            <mxPoint x="830" y="420" as="targetPoint" />
            <Array as="points">
              <mxPoint x="505" y="200" />
            </Array>
          </mxGeometry>
        </mxCell>
        <mxCell id="6aKzAuDBrb87LQXKOuH2-43" value="" style="endArrow=classic;html=1;rounded=1;exitX=1;exitY=0.5;exitDx=0;exitDy=0;entryX=0.5;entryY=1;entryDx=0;entryDy=0;curved=0;" parent="6aKzAuDBrb87LQXKOuH2-1" source="6aKzAuDBrb87LQXKOuH2-37" target="6aKzAuDBrb87LQXKOuH2-28" edge="1">
          <mxGeometry width="50" height="50" relative="1" as="geometry">
            <mxPoint x="780" y="470" as="sourcePoint" />
            <mxPoint x="830" y="420" as="targetPoint" />
            <Array as="points">
              <mxPoint x="630" y="200" />
            </Array>
          </mxGeometry>
        </mxCell>
        <mxCell id="6aKzAuDBrb87LQXKOuH2-44" value="" style="endArrow=classic;html=1;rounded=1;exitX=1;exitY=0.5;exitDx=0;exitDy=0;entryX=0.5;entryY=0;entryDx=0;entryDy=0;curved=0;" parent="6aKzAuDBrb87LQXKOuH2-1" source="6aKzAuDBrb87LQXKOuH2-37" target="6aKzAuDBrb87LQXKOuH2-33" edge="1">
          <mxGeometry width="50" height="50" relative="1" as="geometry">
            <mxPoint x="780" y="470" as="sourcePoint" />
            <mxPoint x="830" y="420" as="targetPoint" />
            <Array as="points">
              <mxPoint x="505" y="200" />
            </Array>
          </mxGeometry>
        </mxCell>
        <mxCell id="6aKzAuDBrb87LQXKOuH2-45" value="" style="endArrow=classic;html=1;rounded=1;exitX=1;exitY=0.5;exitDx=0;exitDy=0;entryX=0.5;entryY=0;entryDx=0;entryDy=0;curved=0;" parent="6aKzAuDBrb87LQXKOuH2-1" source="6aKzAuDBrb87LQXKOuH2-37" target="6aKzAuDBrb87LQXKOuH2-34" edge="1">
          <mxGeometry width="50" height="50" relative="1" as="geometry">
            <mxPoint x="780" y="470" as="sourcePoint" />
            <mxPoint x="830" y="420" as="targetPoint" />
            <Array as="points">
              <mxPoint x="530" y="200" />
              <mxPoint x="630" y="200" />
            </Array>
          </mxGeometry>
        </mxCell>
        <mxCell id="6aKzAuDBrb87LQXKOuH2-50" value="etcd" style="shape=cylinder3;whiteSpace=wrap;html=1;boundedLbl=1;backgroundOutline=1;size=15;" parent="6aKzAuDBrb87LQXKOuH2-1" vertex="1">
          <mxGeometry x="380" y="80" width="40" height="50" as="geometry" />
        </mxCell>
        <mxCell id="6aKzAuDBrb87LQXKOuH2-51" value="" style="endArrow=classic;html=1;rounded=0;entryX=0.5;entryY=1;entryDx=0;entryDy=0;entryPerimeter=0;exitX=0.5;exitY=0;exitDx=0;exitDy=0;" parent="6aKzAuDBrb87LQXKOuH2-1" source="6aKzAuDBrb87LQXKOuH2-37" target="6aKzAuDBrb87LQXKOuH2-50" edge="1">
          <mxGeometry width="50" height="50" relative="1" as="geometry">
            <mxPoint x="780" y="470" as="sourcePoint" />
            <mxPoint x="830" y="420" as="targetPoint" />
          </mxGeometry>
        </mxCell>
        <mxCell id="6aKzAuDBrb87LQXKOuH2-52" value="" style="endArrow=classic;startArrow=classic;html=1;rounded=0;exitX=1;exitY=0.5;exitDx=0;exitDy=0;entryX=0;entryY=0.5;entryDx=0;entryDy=0;" parent="6aKzAuDBrb87LQXKOuH2-1" source="6aKzAuDBrb87LQXKOuH2-25" target="6aKzAuDBrb87LQXKOuH2-35" edge="1">
          <mxGeometry width="50" height="50" relative="1" as="geometry">
            <mxPoint x="340" y="-30" as="sourcePoint" />
            <mxPoint x="370" y="-30" as="targetPoint" />
          </mxGeometry>
        </mxCell>
        <mxCell id="6aKzAuDBrb87LQXKOuH2-53" value="" style="endArrow=classic;startArrow=classic;html=1;rounded=0;entryX=1;entryY=0.5;entryDx=0;entryDy=0;exitX=0;exitY=0.5;exitDx=0;exitDy=0;" parent="6aKzAuDBrb87LQXKOuH2-1" source="6aKzAuDBrb87LQXKOuH2-25" target="6aKzAuDBrb87LQXKOuH2-36" edge="1">
          <mxGeometry width="50" height="50" relative="1" as="geometry">
            <mxPoint x="280" y="200" as="sourcePoint" />
            <mxPoint x="309" y="200" as="targetPoint" />
          </mxGeometry>
        </mxCell>
        <mxCell id="6aKzAuDBrb87LQXKOuH2-54" value="&lt;font style=&quot;font-size: 9px;&quot;&gt;gRPC unidirectional (every 5s)&lt;/font&gt;" style="text;html=1;align=center;verticalAlign=middle;whiteSpace=wrap;rounded=0;rotation=90;" parent="6aKzAuDBrb87LQXKOuH2-1" vertex="1">
          <mxGeometry x="154.25" y="310" width="95" height="50" as="geometry" />
        </mxCell>
        <mxCell id="6aKzAuDBrb87LQXKOuH2-15" value="" style="endArrow=classic;html=1;rounded=0;exitX=1;exitY=0.5;exitDx=0;exitDy=0;entryX=0;entryY=0.5;entryDx=0;entryDy=0;dashed=1;dashPattern=8 8;" parent="1" source="6aKzAuDBrb87LQXKOuH2-5" target="6aKzAuDBrb87LQXKOuH2-21" edge="1">
          <mxGeometry width="50" height="50" relative="1" as="geometry">
            <mxPoint x="390" y="600" as="sourcePoint" />
            <mxPoint x="640" y="360" as="targetPoint" />
          </mxGeometry>
        </mxCell>
        <mxCell id="6aKzAuDBrb87LQXKOuH2-16" value="generic gRPC client" style="shape=umlActor;verticalLabelPosition=bottom;verticalAlign=top;html=1;outlineConnect=0;" parent="1" vertex="1">
          <mxGeometry x="490" y="180" width="20" height="40" as="geometry" />
        </mxCell>
        <mxCell id="6aKzAuDBrb87LQXKOuH2-17" value="Prometheus" style="shape=umlActor;verticalLabelPosition=bottom;verticalAlign=top;html=1;outlineConnect=0;" parent="1" vertex="1">
          <mxGeometry x="490" y="440" width="20" height="40" as="geometry" />
        </mxCell>
        <mxCell id="6aKzAuDBrb87LQXKOuH2-18" value="" style="endArrow=classic;html=1;rounded=0;entryX=1;entryY=0.5;entryDx=0;entryDy=0;exitX=0.118;exitY=0.832;exitDx=0;exitDy=0;exitPerimeter=0;" parent="1" source="6aKzAuDBrb87LQXKOuH2-21" target="6aKzAuDBrb87LQXKOuH2-5" edge="1">
          <mxGeometry width="50" height="50" relative="1" as="geometry">
            <mxPoint x="640" y="540" as="sourcePoint" />
            <mxPoint x="600" y="580" as="targetPoint" />
          </mxGeometry>
        </mxCell>
        <mxCell id="6aKzAuDBrb87LQXKOuH2-19" value="" style="endArrow=classic;html=1;rounded=0;exitX=1;exitY=0.5;exitDx=0;exitDy=0;entryX=0.06;entryY=0.283;entryDx=0;entryDy=0;entryPerimeter=0;" parent="1" source="6aKzAuDBrb87LQXKOuH2-5" target="6aKzAuDBrb87LQXKOuH2-21" edge="1">
          <mxGeometry width="50" height="50" relative="1" as="geometry">
            <mxPoint x="390" y="360" as="sourcePoint" />
            <mxPoint x="640" y="190" as="targetPoint" />
          </mxGeometry>
        </mxCell>
        <mxCell id="6aKzAuDBrb87LQXKOuH2-20" value="Other storages" style="shape=umlActor;verticalLabelPosition=bottom;verticalAlign=top;html=1;outlineConnect=0;" parent="1" vertex="1">
          <mxGeometry x="490" y="-10" width="20" height="40" as="geometry" />
        </mxCell>
        <mxCell id="6aKzAuDBrb87LQXKOuH2-21" value="" style="ellipse;whiteSpace=wrap;html=1;shadow=1;fillColor=none;" parent="1" vertex="1">
          <mxGeometry x="440" y="-175" width="120" height="760" as="geometry" />
        </mxCell>
        <mxCell id="6aKzAuDBrb87LQXKOuH2-30" style="edgeStyle=orthogonalEdgeStyle;rounded=0;orthogonalLoop=1;jettySize=auto;html=1;exitX=0;exitY=0.3333333333333333;exitDx=0;exitDy=0;exitPerimeter=0;entryX=0.5;entryY=0.5;entryDx=0;entryDy=0;entryPerimeter=0;" parent="1" source="6aKzAuDBrb87LQXKOuH2-17" target="6aKzAuDBrb87LQXKOuH2-17" edge="1">
          <mxGeometry relative="1" as="geometry" />
        </mxCell>
      </root>
    </mxGraphModel>
  </diagram>
</mxfile>
